<svg xmlns="http://www.w3.org/2000/svg" xmlns:xlink="http://www.w3.org/1999/xlink"><defs><clipPath id="a"><path fill="#fff" d="M0 0h128v24H0z"/></clipPath></defs><symbol id="Vector"><g fill="none"><path d="M11.5.833H8.75A4.63 4.63 0 0 0 5.51 2.15a4.45 4.45 0 0 0-1.343 3.177v2.697h-2.75v3.595h2.75v7.191h3.666v-7.19h2.75l.917-3.596H7.833V5.327a.89.89 0 0 1 .269-.635.926.926 0 0 1 .648-.263h2.75V.833Z" stroke="#666" stroke-width="1.1" stroke-linecap="round" stroke-linejoin="round"/></g></symbol><symbol id="footer-logo"><g fill="none"><g clip-path="url(#a)"><path d="M1.603 22.051A9.498 9.498 0 0 1 0 16.308V7.795a9.63 9.63 0 0 1 1.502-5.846C2.604.615 4.307 0 6.811 0s4.106.615 5.108 1.744a7.487 7.487 0 0 1 1.502 5.025v2.052H8.513V6.46a5.157 5.157 0 0 0-.3-2.05 1.463 1.463 0 0 0-.579-.63 1.415 1.415 0 0 0-.823-.191c-.701 0-1.202.205-1.403.718a6.774 6.774 0 0 0-.3 2.256v10.974a4.334 4.334 0 0 0 .4 2.154c.2.513.702.718 1.403.718.7 0 1.102-.205 1.302-.718.228-.693.33-1.423.3-2.154v-2.461h4.908v2.051a7.98 7.98 0 0 1-1.502 5.128c-1.002 1.231-2.705 1.847-5.108 1.847-2.404-.103-4.207-.718-5.208-2.052ZM19.33.308h5.71l4.206 23.384h-4.607l-.802-4.923h-3.305l-.801 4.923h-4.708L19.33.308Zm4.107 15.384-1.202-9.128-1.202 9.128h2.404ZM32.751 4.205h-3.405V.308h11.918v3.794H37.86v19.59h-5.108V4.205ZM50.379.308h8.814v2.461h-5.71v7.692h4.608v2.36h-4.607v8.615h5.709v2.359h-8.914V.308h.1ZM61.797.308H64l6.51 15.487V.308h2.604v23.384h-2.003l-6.61-16v16h-2.704V.308ZM76.119.308h8.814v2.461h-5.71v7.692h4.608v2.36h-4.607v8.615h5.709v2.359h-8.814V.308ZM87.537.308h4.607a7.873 7.873 0 0 1 5.108 1.436c1.102.923 1.602 2.564 1.602 4.717 0 2.975-.901 4.821-2.804 5.436l3.205 11.693H96.15l-3.005-10.975h-2.503V23.59h-3.205V.308h.1Zm4.407 10.05a4.302 4.302 0 0 0 2.904-.82c.601-.512.902-1.538.902-3.077a6.772 6.772 0 0 0-.3-2.256 2.583 2.583 0 0 0-1.103-1.23 4.473 4.473 0 0 0-2.203-.411h-1.402v7.692h1.202v.103ZM102.861 21.949a10.566 10.566 0 0 1-1.402-5.95V8.206c-.025-1.486.143-2.97.5-4.41a5.204 5.204 0 0 1 1.903-2.667 6.421 6.421 0 0 1 3.706-.923c2.103 0 3.606.513 4.507 1.641a7.982 7.982 0 0 1 1.402 5.128v.82h-3.004v-.717a15.503 15.503 0 0 0-.201-2.564 2.056 2.056 0 0 0-.801-1.334 3.04 3.04 0 0 0-1.903-.512 2.955 2.955 0 0 0-2.003.615 2.349 2.349 0 0 0-.801 1.641 19.734 19.734 0 0 0-.201 2.77v8.717a9.527 9.527 0 0 0 .601 3.898c.401.82 1.202 1.128 2.404 1.128.475.06.956-.024 1.384-.243a2.45 2.45 0 0 0 1.02-.988 9.635 9.635 0 0 0 .701-4.102V14.46h-2.905v-2.359h5.809v11.59h-2.003l-.3-2.666a4.18 4.18 0 0 1-1.554 2.21 4.016 4.016 0 0 1-2.553.764 4.907 4.907 0 0 1-2.406-.47 5.037 5.037 0 0 1-1.9-1.581ZM119.987 15.487 115.08.41h3.004l3.506 11.282L124.995.41H128l-4.908 15.077v8.205h-3.004v-8.205h-.101Z"/></g></g></symbol><symbol id="icon_arrow"><g fill="none"><path stroke="#000" stroke-width="2" d="M0 6h18"/><path d="m24 6-6.75 5.196V.804L24 6Z" fill="#000"/></g></symbol><symbol id="icon_facebook"><g fill="none"><path d="M21 2.75h-3.5c-1.547 0-3.03.71-4.125 1.974-1.094 1.264-1.708 2.98-1.708 4.767v4.045h-3.5v5.393h3.5v10.786h4.666V18.929h3.5L21 13.536h-4.667V9.49c0-.358.123-.7.342-.953.219-.253.516-.395.825-.395H21V2.75Z" stroke="#666" stroke-width="1.1" stroke-linecap="round" stroke-linejoin="round"/></g></symbol><symbol id="icon_instagram"><g fill="none"><path d="M9.98.078c1.667 0 3.028.02 4.082.059.899.039 1.7.195 2.403.468.677.26 1.263.638 1.758 1.133.494.495.872 1.081 1.133 1.758.273.703.43 1.504.468 2.402.04 1.055.059 2.416.059 4.082 0 1.667-.02 3.028-.059 4.082-.039.899-.195 1.7-.469 2.403a4.985 4.985 0 0 1-1.132 1.758 4.985 4.985 0 0 1-1.758 1.133c-.703.273-1.504.43-2.402.468-1.055.04-2.416.059-4.083.059-1.666 0-3.027-.02-4.082-.059-.898-.039-1.699-.195-2.402-.469a4.985 4.985 0 0 1-1.758-1.132 4.984 4.984 0 0 1-1.133-1.758c-.273-.703-.43-1.504-.468-2.402-.04-1.055-.059-2.416-.059-4.083 0-1.666.02-3.027.059-4.082C.176 5 .332 4.2.605 3.496a4.984 4.984 0 0 1 1.133-1.758A4.984 4.984 0 0 1 3.496.605C4.2.332 5 .175 5.898.137 6.953.097 8.314.078 9.98.078Zm0 1.29c-1.731 0-3.144.019-4.238.058a6.27 6.27 0 0 0-1.953.37A3.566 3.566 0 0 0 1.797 3.79a6.27 6.27 0 0 0-.371 1.953 123.51 123.51 0 0 0-.059 4.238c0 1.732.02 3.145.059 4.239a6.27 6.27 0 0 0 .37 1.953 3.566 3.566 0 0 0 1.993 1.992c.599.221 1.25.345 1.953.371a123.7 123.7 0 0 0 4.238.059c1.732 0 3.145-.02 4.239-.059a6.274 6.274 0 0 0 1.953-.37 3.567 3.567 0 0 0 1.992-1.993c.221-.6.345-1.25.371-1.953.04-1.094.059-2.507.059-4.239 0-1.731-.02-3.144-.059-4.238a6.273 6.273 0 0 0-.37-1.953 3.566 3.566 0 0 0-1.993-1.992 6.27 6.27 0 0 0-1.953-.371c-1.094-.04-2.507-.059-4.239-.059Zm0 12.577c1.094 0 2.028-.387 2.803-1.162.775-.774 1.162-1.709 1.162-2.803 0-1.093-.387-2.028-1.162-2.802-.774-.775-1.709-1.162-2.803-1.162-1.093 0-2.028.387-2.802 1.162-.775.774-1.162 1.709-1.162 2.802 0 1.094.387 2.028 1.162 2.803.774.775 1.709 1.162 2.802 1.162Zm0-9.043c1.407 0 2.605.495 3.594 1.485.99.99 1.485 2.187 1.485 3.593 0 1.407-.495 2.605-1.485 3.594-.99.99-2.187 1.485-3.594 1.485-1.406 0-2.604-.495-3.593-1.485-.99-.99-1.485-2.187-1.485-3.594 0-1.406.495-2.604 1.485-3.593.99-.99 2.187-1.485 3.593-1.485Zm6.485-.195c0 .326-.117.602-.352.83-.234.228-.52.342-.86.342a1.13 1.13 0 0 1-.83-.342 1.13 1.13 0 0 1-.341-.83c0-.339.114-.625.342-.86.228-.234.504-.35.83-.35.325 0 .609.12.85.36.24.241.36.525.36.85Z" fill="#666"/></g></symbol><symbol id="icon_vkontakte"><g fill="none"><path d="M.085 5.49c0-.855.515-1.316 1.546-1.383l3.97.025a.52.52 0 0 1 .532.377C6.542 5.767 7 6.852 7.505 7.766c.507.913 1.168 1.966 1.985 3.156.071.15.187.226.347.226.124 0 .222-.059.293-.176l.08-.277.026-4.35c0-.302-.075-.503-.226-.604-.151-.1-.43-.176-.84-.226-.319-.05-.479-.235-.479-.553 0-.067.009-.118.027-.151.373-1.09 1.438-1.635 3.197-1.635l1.492-.025c.675 0 1.234.16 1.678.478.444.318.667.821.667 1.509v5.708a.63.63 0 0 0 .346.126c.266 0 .497-.15.693-.452 1.953-2.582 3.01-4.31 3.17-5.181 0-.017.018-.059.054-.126.124-.251.328-.47.612-.654.285-.184.533-.31.746-.377a.555.555 0 0 1 .24-.05h4.13l.266.025c.355 0 .63.16.826.478.071.1.12.21.147.327.026.117.044.234.053.352.009.117.013.184.013.201v.176c-.124.687-.44 1.42-.945 2.2-.507.78-1.15 1.623-1.932 2.528s-1.27 1.5-1.466 1.785c-.16.202-.24.386-.24.554 0 .134.072.285.214.452l3.89 4.627c.213.269.32.562.32.88 0 .386-.16.705-.48.956-.32.252-.702.394-1.146.428l-.453.025h-4.05a.875.875 0 0 0-.106.012.862.862 0 0 1-.107.013c-.39 0-.755-.16-1.092-.478-.124-.134-.96-1.123-2.504-2.967a1.384 1.384 0 0 0-.373-.327c-.072.268-.165.654-.28 1.157-.116.503-.2.863-.253 1.081l-.08.428c-.178.586-.55.938-1.12 1.056l-.372.025h-2.611c-1.475 0-2.944-.637-4.41-1.911-1.465-1.274-2.784-2.922-3.956-4.942C2.323 11.253 1.23 8.902.219 6.22a1.916 1.916 0 0 1-.134-.73Zm16.013 6.513c-.373 0-.71-.096-1.012-.289-.303-.193-.454-.457-.454-.792V5.138c0-.335-.088-.574-.266-.717-.178-.142-.488-.214-.932-.214l-1.52.05c-.763 0-1.34.126-1.73.378.78.352 1.171.922 1.171 1.71v4.426a1.5 1.5 0 0 1-.532 1.044 1.59 1.59 0 0 1-1.066.415c-.533 0-.942-.244-1.226-.73-1.385-1.978-2.415-3.856-3.09-5.633l-.24-.654-3.544-.025c-.23 0-.36.013-.386.038-.027.025-.04.096-.04.214 0 .15.018.31.053.477l.56 1.409c1.492 3.638 3.113 6.505 4.862 8.6 1.75 2.096 3.468 3.144 5.156 3.144h2.664c.107 0 .187-.03.24-.088.053-.059.097-.172.133-.34l.053-.251.507-2.213c.142-.302.266-.503.373-.604a.976.976 0 0 1 .692-.276c.427 0 .862.243 1.306.729l2.264 2.716c.142.218.293.327.453.327h4.396c.533 0 .8-.126.8-.378a.465.465 0 0 0-.08-.25L21.8 13.888c-.302-.352-.453-.729-.453-1.131 0-.403.142-.788.426-1.157.23-.336.68-.893 1.345-1.673a37.63 37.63 0 0 0 1.745-2.187c.498-.68.826-1.295.986-1.849l.08-.327a.37.37 0 0 1-.026-.163.574.574 0 0 0-.027-.189h-4.183c-.266.1-.48.252-.64.453l-.16.478c-.443 1.157-1.607 2.942-3.49 5.356a1.892 1.892 0 0 1-1.305.503Z" fill="#666"/></g></symbol><symbol id="logo_html"><g fill="none"><path d="M13.643.016 13.5 0 0 1.407v24.606L13.5 34 27 26.013V1.407L13.643.016Zm11.591 25L13.5 31.956 1.766 25.015V14.93l11.685 6.916.02 1.253-8.017-4.743-.011 1.225 8.046 4.809.02 1.286-8.045-4.758-.01 1.226L13.5 26.95l8.124-4.833V16.91l3.62-2.15-.01 10.256Zm0-11.564-3.22 1.88-1.482.875-7.065-4.187-.011 1.225 6.04 3.573-.053.031-.13.076-.86.492-4.986-2.948-.011 1.225 3.936 2.328-.933.61-.021.012-2.971-1.742-.011 1.225 1.947 1.135-1.988 1.186-11.618-6.872 11.638-6.958 11.8 6.834Zm0-1.225L13.44 5.31 1.766 12.22V2.99L13.5 1.764 25.234 2.99v9.237Z" fill="#666"/></g></symbol></svg>